# xmcd CD database file
#
# Track frame offsets:
#	150
#	14352
#	27732
#	41050
#	57390
#	74417
#	92685
#	109605
#	125315
#	147895
#	158612
#	174405
#	188097
#	207097
#
# Disc length: 2913 seconds
#
# Revision: 0
# Processed by: cddbd v1.5.2PL0 Copyright (c) Steve Scherf et al.
# Submitted via: CDex 1.51
#
DISCID=be0b5f0e
DTITLE=Various Artist - Folk and Country - Dream Songs (Female)
DYEAR=1900
DGENRE=Country
TTITLE0=Donna donna
TTITLE1=To-day
TTITLE2=As tears go by
TTITLE3=Blowing in the wind
TTITLE4=Monday morning
TTITLE5=Nobody child
TTITLE6=Mother of mine
TTITLE7=Let it be
TTITLE8=I really don't want to know
TTITLE9=Hello darling
TTITLE10=You needed me
TTITLE11=Where have all the flowers gone
TTITLE12=Don't cry Joni
TTITLE13=Goodbye Jimmy goodbye
EXTD=
EXTT0=
EXTT1=
EXTT2=
EXTT3=
EXTT4=
EXTT5=
EXTT6=
EXTT7=
EXTT8=
EXTT9=
EXTT10=
EXTT11=
EXTT12=
EXTT13=
PLAYORDER=
